<svg xmlns="http://www.w3.org/2000/svg" xmlns:xlink="http://www.w3.org/1999/xlink" viewBox="0 0 673.51 739.88"><defs><pattern id="a" width="40.06" height="88.61" patternTransform="matrix(1, 0, 0, -1, -272.37, 815.6)" patternUnits="userSpaceOnUse" viewBox="0 0 40.06 88.61"><rect width="40.06" height="88.61" fill="none"/><rect width="40.06" height="88.61" fill="none"/><path d="M8.42,75.77l-.35-9.45c0-.48.73-.48.75,0l.35,9.45C9.19,76.25,8.44,76.25,8.42,75.77Z" fill="#e4e4e4"/><path d="M14.47,73.88l-.35-10.59c0-.48.73-.48.75,0l.35,10.59C15.24,74.36,14.49,74.36,14.47,73.88Z" fill="#e4e4e4"/><path d="M22.49,79.54V69.34a.37.37,0,0,1,.39-.36.36.36,0,0,1,.36.36v10.2a.38.38,0,0,1-.38.37A.39.39,0,0,1,22.49,79.54Z" fill="#e4e4e4"/><path d="M21.36,56.11l-.76-6c-.06-.47.69-.47.75,0l.76,6C22.17,56.59,21.42,56.58,21.36,56.11Z" fill="#e4e4e4"/><path d="M12.34,56.86l-1.13-10.2c-.05-.48.7-.48.75,0l1.13,10.2c.05.48-.7.48-.75,0Z" fill="#e4e4e4"/><path d="M6.24,55.73V47.42a.37.37,0,0,1,.39-.36.36.36,0,0,1,.36.36v8.31a.38.38,0,0,1-.75,0Z" fill="#e4e4e4"/><path d="M25.52,74.25V64.8a.38.38,0,0,1,.38-.36.39.39,0,0,1,.37.36v9.45a.39.39,0,0,1-.39.37A.37.37,0,0,1,25.52,74.25Z" fill="#e4e4e4"/><path d="M25.52,54.22V45.53a.36.36,0,0,1,.38-.36.37.37,0,0,1,.37.36v8.69a.37.37,0,0,1-.39.36A.36.36,0,0,1,25.52,54.22Z" fill="#e4e4e4"/><path d="M17.26,64.14l.27-8.5c0-.48.77-.48.75,0L18,64.14A.38.38,0,0,1,17.26,64.14Z" fill="#e4e4e4"/><path d="M17.77,42.6l.28-4.25c0-.48.78-.48.75,0l-.28,4.25C18.49,43.08,17.74,43.08,17.77,42.6Z" fill="#e4e4e4"/><path d="M12.87,37.79l-.55-7.09c0-.48.71-.48.75,0l.55,7.09C13.66,38.27,12.91,38.27,12.87,37.79Z" fill="#e4e4e4"/><path d="M9.05,60.65l.83-4.25c.1-.48.82-.28.73.2l-.84,4.25C9.68,61.32,9,61.12,9.05,60.65Z" fill="#e4e4e4"/><path d="M8.13,41.75l-.28-6c0-.49.72-.48.75,0l.28,6C8.9,42.23,8.15,42.23,8.13,41.75Z" fill="#e4e4e4"/><path d="M3.05,51.67,4.47,37.5c0-.48.8-.48.75,0L3.8,51.67C3.75,52.15,3,52.15,3.05,51.67Z" fill="#e4e4e4"/><path d="M20.65,55.92l.29-16.15a.38.38,0,0,1,.39-.37.39.39,0,0,1,.36.37L21.4,55.92a.38.38,0,0,1-.38.37A.39.39,0,0,1,20.65,55.92Z" fill="#e4e4e4"/><path d="M29.24,59l-.85-17.29c0-.48.72-.48.75,0L30,59C30,59.52,29.26,59.52,29.24,59Z" fill="#e4e4e4"/><path d="M23.44,77.47l-1.7-15.88c0-.48.7-.47.75,0l1.7,15.88C24.24,77.94,23.49,77.94,23.44,77.47Z" fill="#e4e4e4"/><path d="M17.64,88.25,16.52,72.09c0-.48.72-.48.75,0l1.12,16.16C18.42,88.73,17.67,88.73,17.64,88.25Z" fill="#e4e4e4"/><path d="M14.11,85.68l-3-25.24c-.06-.47.69-.47.75,0l3,25.24C14.92,86.16,14.17,86.16,14.11,85.68Z" fill="#e4e4e4"/><path d="M6.76,86.54l.93-24.09c0-.48.77-.49.75,0L7.51,86.54A.38.38,0,0,1,6.76,86.54Z" fill="#e4e4e4"/><path d="M11.89,86.74l7.93-23c.15-.46.88-.26.72.2l-7.92,23C12.46,87.4,11.74,87.2,11.89,86.74Z" fill="#e4e4e4"/><path d="M36.71,85.4l-.28-13.89a.38.38,0,0,1,.39-.36.39.39,0,0,1,.36.36l.28,13.89a.38.38,0,0,1-.39.37.39.39,0,0,1-.36-.37Z" fill="#e4e4e4"/><path d="M26.65,61.88,27.51,42c0-.48.77-.49.75,0L27.4,61.88C27.38,62.36,26.63,62.36,26.65,61.88Z" fill="#e4e4e4"/><path d="M26.56,33.25,26,24.17c0-.48.72-.48.75,0l.57,9.08C27.34,33.73,26.59,33.73,26.56,33.25Z" fill="#e4e4e4"/><path d="M18.34,28.14v-6.8a.36.36,0,0,1,.38-.36.37.37,0,0,1,.37.36v6.8a.39.39,0,0,1-.39.37A.37.37,0,0,1,18.34,28.14Z" fill="#e4e4e4"/><path d="M10.9,51.09,9.53,31.53c0-.49.72-.48.75,0l1.37,19.56C11.69,51.57,10.94,51.57,10.9,51.09Z" fill="#e4e4e4"/><path d="M1.85,50.53l2-32.59c0-.48.78-.48.75,0l-2,32.59C2.57,51,1.82,51,1.85,50.53Z" fill="#e4e4e4"/><path d="M0,49.32l7.1-34.86c.1-.48.82-.28.72.2L.73,49.52c-.09.47-.82.27-.72-.2Z" fill="#e4e4e4"/><path d="M12.86,21.3,15,15c.16-.46.88-.26.72.2L13.59,21.5c-.16.46-.89.26-.73-.2Z" fill="#e4e4e4"/><path d="M28,44.87V22.47a.38.38,0,0,1,.39-.36.37.37,0,0,1,.36.36v22.4a.37.37,0,0,1-.38.36A.39.39,0,0,1,28,44.87Z" fill="#e4e4e4"/><path d="M32.77,58.65l3.12-20.41c.07-.47.79-.27.72.2L33.49,58.85c-.07.48-.8.27-.72-.2Z" fill="#e4e4e4"/><path d="M31.94,76.62V63a.37.37,0,0,1,.39-.36.36.36,0,0,1,.36.36V76.62a.38.38,0,0,1-.39.36A.39.39,0,0,1,31.94,76.62Z" fill="#e4e4e4"/><path d="M17.26,36.37l1.16-19.84c0-.48.78-.49.75,0L18,36.37C18,36.85,17.23,36.85,17.26,36.37Z" fill="#e4e4e4"/><path d="M9.65,33.09,15,14.93a.38.38,0,0,1,.47-.25.36.36,0,0,1,.25.44L10.37,33.29a.36.36,0,0,1-.47.24.37.37,0,0,1-.25-.44Z" fill="#e4e4e4"/><path d="M26.56,31V6.6a.36.36,0,0,1,.38-.36.37.37,0,0,1,.37.36V31a.38.38,0,0,1-.39.36A.37.37,0,0,1,26.56,31Z" fill="#e4e4e4"/><path d="M33.88,28.14,35.57,7.73c0-.48.79-.48.75,0L34.63,28.14C34.59,28.62,33.84,28.62,33.88,28.14Z" fill="#e4e4e4"/><path d="M22.35,14,21.5.36c0-.48.72-.48.75,0L23.1,14C23.13,14.45,22.38,14.45,22.35,14Z" fill="#e4e4e4"/><path d="M14.21,28.7,12.51,6.59c0-.48.72-.48.75,0L15,28.7C15,29.18,14.25,29.18,14.21,28.7Z" fill="#e4e4e4"/><path d="M5.85,31.72,10.38,9.05c.1-.48.82-.28.73.19L6.58,31.92c-.1.48-.82.28-.73-.2Z" fill="#e4e4e4"/><path d="M24.57,46.46l6.8-26.64a.38.38,0,0,1,.47-.25.37.37,0,0,1,.25.45l-6.8,26.64a.37.37,0,0,1-.72-.2Z" fill="#e4e4e4"/><path d="M39.31,63.29V48a.39.39,0,0,1,.39-.37.37.37,0,0,1,.36.37v15.3a.37.37,0,0,1-.39.36A.37.37,0,0,1,39.31,63.29Z" fill="#e4e4e4"/><path d="M32.2,76.05,29.66,53.94c-.06-.48.69-.47.75,0L33,76.05C33,76.53,32.26,76.53,32.2,76.05Z" fill="#e4e4e4"/></pattern></defs><path d="M284.63,237.43a34.15,34.15,0,0,0-45.2-28.82l2.47.25a45.22,45.22,0,0,0-27.63,17.66,39.12,39.12,0,0,0-6.2,31.92c2.8,10.83,11.08,20.23,21.67,23.84,5.89,2,12.22,2.25,18.44,2.46,4,.14,8.15.26,12-.82a25.28,25.28,0,0,0,12.59-8.78,51.71,51.71,0,0,0,7.45-13.64C283.28,253.84,285.45,245.62,284.63,237.43Z" fill="#2f2e41"/><path d="M372.59,736.57c-8.8-33.08,10.73-65.32,33.56-87.65C418.31,637,431.86,626.69,445.07,616a417.6,417.6,0,0,0,36.15-32.56c22-22.54,41.23-48.3,53.95-77.25,12.1-27.54,17.82-57.53,15-87.58-2.68-28.49-12.9-56.52-31.68-78.38q-3.53-4.1-7.39-7.83c-1.39-1.35-3.51.77-2.12,2.12,21,20.37,33.19,48,37.32,76.7,4.26,29.62-.13,59.81-11.21,87.5-11.79,29.5-30.56,55.82-52.31,78.79a385.68,385.68,0,0,1-34.91,32.36c-13.12,10.81-26.76,21-39.25,32.58-23,21.29-43.74,50.58-40.89,83.55a66.2,66.2,0,0,0,2,11.36,1.51,1.51,0,0,0,2.9-.8Z" fill="#f0f0f0"/><path d="M464.7,548.24a306.47,306.47,0,0,1-31.52-75.87,312.63,312.63,0,0,1-10.53-81.49c.1-27.51,3.44-55.7,12-81.93,8.09-24.9,22.59-48.64,45.62-62.23A74.58,74.58,0,0,1,519,236.49c14.38.14,28.55,3.92,41.5,10,12.69,6,24.29,14.08,35,23.1a257.29,257.29,0,0,1,28.51,28c17.37,20,31.55,43.09,39.48,68.45,8.26,26.42,9.7,55.32,2,82.06-7.36,25.69-23.49,47.58-43.29,65.16-21.39,19-46.74,32.82-72.3,45.35-6.39,3.14-12.82,6.21-19.26,9.27-1.74.83-.22,3.42,1.52,2.59,26.95-12.84,54.16-25.8,78.19-43.73,21.19-15.82,40.09-35.68,51.33-59.88,11.88-25.58,14.32-54.68,9.39-82.28-4.81-27-16.89-52.23-33.06-74.22A242.28,242.28,0,0,0,611.36,280a220.46,220.46,0,0,0-32.55-26.53c-23.92-15.63-53.83-25.08-82.17-17-25.2,7.16-44.6,27.35-56.14,50.23-6.46,12.81-10.81,26.58-13.91,40.56A296,296,0,0,0,420.51,369a314.8,314.8,0,0,0,31.85,162.74q4.56,9.18,9.74,18a1.51,1.51,0,0,0,2.6-1.52Z" fill="#f0f0f0"/><path d="M445.7,519.24a306.47,306.47,0,0,1-31.52-75.87,312.63,312.63,0,0,1-10.53-81.49c.1-27.51,3.44-55.7,12-81.93,8.09-24.9,22.59-48.64,45.62-62.23A74.58,74.58,0,0,1,500,207.49c14.38.14,28.55,3.92,41.5,10,12.69,6,24.29,14.08,35,23.1a257.29,257.29,0,0,1,28.51,28c17.37,20,31.55,43.09,39.48,68.45,8.26,26.42,9.7,55.32,2,82.06-7.36,25.69-23.49,47.58-43.29,65.16-21.39,19-46.74,32.82-72.3,45.35-6.39,3.14-12.82,6.21-19.26,9.27-1.74.83-.22,3.42,1.52,2.59,26.95-12.84,54.16-25.8,78.19-43.73,21.19-15.82,40.09-35.68,51.33-59.88,11.88-25.58,14.32-54.68,9.39-82.28-4.81-27-16.89-52.23-33.06-74.22A242.28,242.28,0,0,0,592.36,251a220.46,220.46,0,0,0-32.55-26.53c-23.92-15.64-53.83-25.08-82.17-17-25.2,7.16-44.6,27.35-56.14,50.23-6.46,12.81-10.81,26.58-13.91,40.56A296,296,0,0,0,401.51,340a314.8,314.8,0,0,0,31.85,162.74q4.56,9.18,9.74,18a1.51,1.51,0,0,0,2.6-1.52Z" fill="#f0f0f0"/><path d="M172.59,463a12.54,12.54,0,0,1,4.88-18.56l34.67-108.57,24.15,12.54L194.61,451.22a12.58,12.58,0,0,1-22,11.8Z" fill="#ffb6b6"/><path d="M200.92,350.9a5.6,5.6,0,0,1,0-4.67l11.88-25.53a15.58,15.58,0,0,1,29.9,8.76l-4,28a5.6,5.6,0,0,1-6.34,4.76,5.84,5.84,0,0,1-.81-.17l-27.17-8A5.64,5.64,0,0,1,200.92,350.9Z" fill="#2f2e41"/><path d="M301.1,355.21c-8.25,21.61-6.14,44.28,4,67.77h-72c2.89-16.72,1.72-32.25-9-45Z" fill="#ffb6b6"/><path d="M216.83,315.5,238.14,300,273,290.32l29.06,5.81,1.71,16.06a194.14,194.14,0,0,1-2.68,58.52h0l-75.55,17.43-7.75-13.56s-17.43-17.43-3.87-36.8Z" fill="#2f2e41"/><path d="M401.91,207.1a12.52,12.52,0,0,1-8.83,15.34,12.33,12.33,0,0,1-2.17.38l-70.15,89.84-18.31-20.13,74.71-82a12.58,12.58,0,0,1,24.75-3.45Z" fill="#ffb6b6"/><path d="M336.49,302.47a5.58,5.58,0,0,1-1.64,4.37l-20,19.84a15.59,15.59,0,0,1-25-18.59l13.42-24.86a5.61,5.61,0,0,1,7.6-2.28,5.1,5.1,0,0,1,.69.45l22.7,17A5.61,5.61,0,0,1,336.49,302.47Z" fill="#2f2e41"/><polygon points="216.93 716.9 227.96 716.9 233.21 674.35 216.93 674.35 216.93 716.9" fill="#ffb6b6"/><path d="M213.19,711.46l17.44-1v7.47l16.59,11.46a4.67,4.67,0,0,1-2.66,8.51H223.8l-3.58-7.4-1.4,7.4H211Z" fill="#2f2e41"/><polygon points="294.93 716.9 305.96 716.9 311.21 674.35 294.93 674.35 294.93 716.9" fill="#ffb6b6"/><path d="M291.19,711.46l17.44-1v7.47l16.59,11.46a4.67,4.67,0,0,1-2.66,8.51H301.8l-3.58-7.4-1.4,7.4H289Z" fill="#2f2e41"/><path d="M324.24,478.47v21.7l-2.12,26.51s-.67,23.15-1.48,41.41c-.49,11.1-1,20.39-1.52,21.59-.59,1.47-.45,5.48-.11,9.69.4,4.87,1.06,10,1.17,11.73.21,3.21-1.49,17-1.49,17s-1.9,34.58-4.66,37.34,0,10.61,0,10.61c-12.94,9.54-29.28-2.12-29.28-2.12,3.61-5.75-2.12-45-2.12-45s-.84-13.4-2.54-17S278,585.84,278,585.84V552.53s-4.46-6.82-5.09-10,0-14.42,0-14.42l-4.66-15.7L265,524.71s-8.26,34.37-9.75,38.61.84,8.49.84,8.49,2.13,6.54,0,9.54a21.22,21.22,0,0,0-3,6.16s-1.09,12.52-3,17-3.6,10-3.6,10,.45,8.46-1.46,10.37-2.54,11.46-2.54,11.46.42,10.81-2.13,14.63-2.55,25.46-2.55,25.46A29.7,29.7,0,0,1,208,677.7s2.52-2.36.61-13.36,1.37-41,1.37-41-.42-7.6,1.7-11-1.07-10-.22-12.94,3.4-19.1,3.4-19.1-1.06-39.67-1.06-41.79a27.6,27.6,0,0,0-3-10.82c-1.91-3.39,0-28,0-28s4.5-12.72,3-15.48,1-7.64,1-7.64-2.33-5.73,0-6.79,2.76-5.3,2.76-5.3L219.13,444s.61-9.34,2.55-9.76,1.09-4,3-6.57a18.08,18.08,0,0,0,1.9-5.52c.27-1.18.52-2.41.73-3.59.6-3.2,1-6,1-6,12.52,10.4,78.35,3.11,78.42,3.11,4.18.91,9.15,15.42,12.74,28.07A127.47,127.47,0,0,1,324.24,478.47Z" fill="#2f2e41"/><circle cx="247.78" cy="254.32" r="29.87" fill="#ffb6b6"/><path d="M214,259.53h0l11.57-2.41,2.13-15.35,4,14.08,5.53-1.15,1.24-9L240.8,254l41.08-8.55h0a31.62,31.62,0,0,0-37.4-24.52h0l-5.95,1.24A31.63,31.63,0,0,0,214,259.53Z" fill="#2f2e41"/><path d="M332.35,34.92l-.08.14a64.69,64.69,0,0,0-59.72,114.59l-.07.15,114.87,59.87L447.23,94.79a64.77,64.77,0,1,0-114.81-60l-.07.14Z" fill="#0049fa"/><path d="M434.7,694.12l0,0a16.35,16.35,0,0,0-15.1,29v0l29,15.13,15.13-29a16.37,16.37,0,1,0-29-15.17Z" fill="#ff6584"/><path d="M49.53,326v.16c-34.77,8.18-55.95,44.64-47.78,79.41C7.37,429.43,26,448.09,49.53,455.35v.16H179.08V326a64.78,64.78,0,1,0-129.55-.13V326Z" fill="#0049fa"/><path d="M653.26,739.88H6a1.19,1.19,0,0,1,0-2.38H653.26a1.19,1.19,0,0,1,0,2.38Z" fill="#cacaca"/><path d="M550.2,448.35a57.13,57.13,0,0,0,36.19-13.21,55.47,55.47,0,0,0,19.17-34.29,56.63,56.63,0,0,0-1.11-22.71,1.5,1.5,0,0,0-2.89.8,54,54,0,0,1-4.07,37.53,53.38,53.38,0,0,1-47.29,28.88,1.5,1.5,0,0,0,0,3Z" fill="#f0f0f0"/><path d="M318.55,58.69c-8.54-8.1-22-8.08-31.87-2.44-11.07,6.33-16.08,19.41-15.83,31.69.29,13.82,7,26.34,15.77,36.7a146.21,146.21,0,0,0,32.13,27.77,161.41,161.41,0,0,0,38.51,18.36q2.52.81,5.05,1.53a1.5,1.5,0,0,0,.8-2.89,157.46,157.46,0,0,1-68.9-40.88c-9.08-9.29-17.14-20.46-19.62-33.46-2.19-11.48.23-24.81,9.13-33,8.65-7.95,23.79-9.74,32.71-1.27,1.4,1.33,3.52-.79,2.12-2.12Z" fill="#fff"/><path d="M47.31,357.52C35.78,356.09,25,364.2,20.46,374.44c-5,11.49-1.64,24.73,5.67,34.44,8,10.69,20.23,16.92,33,20.23,13.67,3.55,28.18,4.51,42.26,3.85A161.53,161.53,0,0,0,150,423.07c1.79-.67,1-3.57-.8-2.89-26,9.65-54.95,12.7-82.29,7.6-12.22-2.28-24.67-6.62-33.78-15.42-8.25-8-14.09-20-11.6-31.68S35,359,47.31,360.52c1.91.24,1.9-2.76,0-3Z" fill="#fff"/><path d="M239.13,210.57c2.79-11.14-2.61-23.1-11-31s-19.28-12.41-30.08-16.33c-8.62-3.13-18.7-5.85-26.5-1-6.27,3.87-9,11.38-12.56,17.82a58.41,58.41,0,0,1-71.79,26.19c4.62,13.43,20.55,20,34.72,19.08s27.25-7.44,40.44-12.67,27.88-9.27,41.44-5.08c5.73,1.77,10.93,4.92,16.6,6.86s12.3,2.52,17.35-.7" fill="#2f2e41"/><path d="M437.54,618.86l-9.65-17a1.5,1.5,0,0,0-2.59,1.52l9.65,17a1.5,1.5,0,0,0,2.59-1.52Z" fill="#f0f0f0"/><path d="M231.88,408.16l-.71-.88A5.07,5.07,0,0,1,231.88,408.16Z" fill="url(#a)"/></svg>