<svg xmlns="http://www.w3.org/2000/svg" viewBox="0 0 752.32 534.09"><path d="M175.24,234.11c-38.17-37.57-54.28-76.76-45.39-110.36C141.26,80.63,192,50.82,269,42l.29,2.47c-75.93,8.74-125.87,37.88-137,80-8.66,32.7,7.22,71,44.72,108Z" fill="#f0f0f0"/><path d="M543.45,367.47c-47.63,0-99.39-7.08-150.8-20.69C329.07,330,270.78,304.55,224.07,273.31l1.39-2.06c46.48,31.08,104.51,56.37,167.83,73.13C450.5,359.53,508.15,366.54,560,364.69l.09,2.49Q551.86,367.48,543.45,367.47Z" fill="#f0f0f0"/><path d="M652.72,351.82l-.79-2.36c42.6-14.4,69.24-37.6,77.05-67.1,9.92-37.49-11.64-81-60.72-122.51C618.93,118.13,547.79,83.51,468,62.37l.63-2.4c80.19,21.23,151.68,56,201.29,98,49.85,42.17,71.7,86.58,61.51,125.05C723.35,313.34,696.15,337.14,652.72,351.82Z" fill="#f0f0f0"/><path d="M261.56,368.51C168,327,95.85,273.15,58.49,216.87l2.08-1.37c37.1,55.89,108.84,109.42,202,150.74Z" fill="#f0f0f0"/><path d="M590.62,440.42q-14.48,0-29.45-.64l.11-2.49c74.5,3.23,140.23-5.69,190.11-25.79l.93,2.31C708.81,431.34,653.36,440.42,590.62,440.42Z" fill="#f0f0f0"/><path d="M536.32,44.19c-15.47-5-31.38-9.72-47.29-13.94C397.47,6,307.46-2.59,228.73,5.37l-.25-2.48c79-8,169.34.64,261.19,25,15.95,4.22,31.91,8.93,47.42,14Z" fill="#f0f0f0"/><path d="M116.75,237.85c-38.17-37.57-54.29-76.77-45.39-110.37,11.41-43.11,62.12-72.92,139.12-81.79l.29,2.48c-75.93,8.74-125.87,37.88-137,80-8.65,32.7,7.23,71,44.73,108Z" fill="#f0f0f0"/><path d="M485,371.21c-47.63,0-99.39-7.08-150.8-20.69-63.58-16.83-121.87-42.24-168.58-73.47L167,275c46.49,31.08,104.52,56.37,167.84,73.13,57.21,15.15,114.86,22.17,166.68,20.32l.09,2.48Q493.37,371.21,485,371.21Z" fill="#f0f0f0"/><path d="M594.23,355.55l-.8-2.35c42.6-14.41,69.25-37.61,77.06-67.1,9.92-37.5-11.64-81-60.72-122.52C560.43,121.86,489.3,87.24,409.45,66.11l.64-2.41c80.19,21.23,151.68,56,201.28,98,49.86,42.17,71.71,86.58,61.52,125.05C664.86,317.07,637.66,340.87,594.23,355.55Z" fill="#f0f0f0"/><path d="M203.07,372.25C109.48,330.74,37.36,276.89,0,220.61l2.07-1.38c37.11,55.89,108.85,109.42,202,150.74Z" fill="#f0f0f0"/><path d="M532.13,444.16q-14.48,0-29.45-.65l.1-2.49c74.51,3.23,140.24-5.69,190.11-25.78l.93,2.31C650.32,435.08,594.87,444.16,532.13,444.16Z" fill="#f0f0f0"/><path d="M477.83,47.93c-15.47-5-31.38-9.73-47.29-13.94C339,9.75,249,1.14,170.24,9.1L170,6.63c79-8,169.34.64,261.18,25,16,4.23,31.92,8.93,47.43,14Z" fill="#f0f0f0"/><path d="M42.42,171.18c17.89-20.06,46.42-32.28,72.28-25a123.77,123.77,0,0,0-48.31,69.94c-2.8,10.92-4.77,23.35-13.85,30-5.65,4.15-13.13,5.14-20.08,4.2s-13.52-3.65-20-6.33l-1.75.15C15.73,217.81,24.54,191.23,42.42,171.18Z" fill="#f2f2f2"/><path d="M114.62,146.78a105.77,105.77,0,0,0-55.5,34,45.57,45.57,0,0,0-7.68,12,26.14,26.14,0,0,0-1.55,13.67c.59,4.31,1.68,8.66,1.2,13a16,16,0,0,1-6.78,11.19c-4.54,3.32-10,4.8-15.4,6.07-6,1.41-12.22,2.77-17.1,6.75-.59.48-1.3-.46-.71-.94,8.49-6.92,20.28-6,29.68-11.06,4.38-2.35,8.08-6,9-11.08.79-4.41-.34-8.9-1-13.26a27.77,27.77,0,0,1,1-13.42A42,42,0,0,1,57,181.53a102.65,102.65,0,0,1,23.91-21.4,107.63,107.63,0,0,1,33.57-14.53c.74-.18.87,1,.14,1.18Z" fill="#fff"/><path d="M63.46,175.11A15.89,15.89,0,0,1,63,154.55c.48-.59,1.42.13.94.73a14.69,14.69,0,0,0,.49,19.11C64.91,175,64,175.67,63.46,175.11Z" fill="#fff"/><path d="M49.31,204.38a30.63,30.63,0,0,0,21.26-6.73c.6-.48,1.31.46.72.94a31.85,31.85,0,0,1-22.14,7C48.39,205.5,48.55,204.33,49.31,204.38Z" fill="#fff"/><path d="M91.45,155a9,9,0,0,0,7.26,4.49c.76,0,.59,1.21-.17,1.17a10,10,0,0,1-8-4.94.61.61,0,0,1,.11-.83.59.59,0,0,1,.83.11Z" fill="#fff"/><path d="M151.4,229.47c-.47,0-1,0-1.43,0a118.19,118.19,0,0,0-19.17,1.12l-1.48.2a124.78,124.78,0,0,0-43.38,15.12,121,121,0,0,0-15.22,10.35c-6.63,5.3-13.41,11.56-21.17,14.28a21.74,21.74,0,0,1-2.47.72l-36-24.9-.16-.29-1.49-.93.72-.64c.13-.13.28-.25.41-.37l.27-.25.08-.07.24-.22q2.06-1.83,4.17-3.64h0A177.92,177.92,0,0,1,50,216.05c.37-.19.75-.39,1.14-.57a115.16,115.16,0,0,1,17.5-7.06q5-1.51,10-2.54a85.1,85.1,0,0,1,26.55-1c17.65,2.1,34.42,9.83,45.36,23.54C150.86,228.77,151.13,229.11,151.4,229.47Z" fill="#f2f2f2"/><path d="M151,229.87a105.92,105.92,0,0,0-64.81-6.23,45.83,45.83,0,0,0-13.39,5,26.31,26.31,0,0,0-9.46,10c-2.13,3.79-3.87,7.92-6.89,11.13a16,16,0,0,1-12.16,4.85c-5.62-.08-10.87-2.18-15.94-4.42-5.63-2.48-11.43-5.14-17.73-4.9-.76,0-.76-1.16,0-1.19,10.95-.41,19.83,7.4,30.36,9,4.91.77,10.08.06,13.84-3.43,3.29-3.06,5.09-7.31,7.22-11.17a27.74,27.74,0,0,1,8.89-10.11,42.07,42.07,0,0,1,13.14-5.48,102.7,102.7,0,0,1,32-2.7,107.76,107.76,0,0,1,35.55,8.62c.7.3.1,1.32-.59,1Z" fill="#fff"/><path d="M93.1,221.69a15.88,15.88,0,0,1,12-16.71.6.6,0,0,1,.32,1.15,14.7,14.7,0,0,0-11.12,15.56C94.35,222.45,93.16,222.44,93.1,221.69Z" fill="#fff"/><path d="M64.18,236.54a30.62,30.62,0,0,0,21,7.43c.76,0,.76,1.16,0,1.18a31.82,31.82,0,0,1-21.87-7.77c-.57-.5.27-1.34.84-.84Z" fill="#fff"/><path d="M127.59,222.45a9,9,0,0,0,3.09,8c.58.49-.26,1.33-.84.84a10.09,10.09,0,0,1-3.44-8.79.6.6,0,0,1,1.19,0Z" fill="#fff"/><path d="M743.28,335.58c-10.1-24.9-32.87-46-59.68-47.8a123.85,123.85,0,0,1,22,82.1c-1,11.23-3.36,23.6,2.94,32.94,3.93,5.81,10.65,9.26,17.51,10.7s14,1.11,21,.77l1.59.73C752.75,388.47,753.39,360.47,743.28,335.58Z" fill="#f2f2f2"/><path d="M683.49,288.33a105.77,105.77,0,0,1,40.82,50.72,45.58,45.58,0,0,1,3.2,13.91,26.28,26.28,0,0,1-3.14,13.4c-2,3.86-4.49,7.59-5.51,11.87a16,16,0,0,0,2.62,12.83c3.17,4.65,7.81,7.88,12.46,10.89,5.16,3.33,10.58,6.72,13.84,12.11.39.65,1.38,0,1-.65-5.67-9.38-17.08-12.5-24.24-20.4-3.33-3.68-5.58-8.39-4.73-13.45.74-4.42,3.3-8.27,5.36-12.16a27.92,27.92,0,0,0,3.56-13,42.07,42.07,0,0,0-2.65-14,102.26,102.26,0,0,0-15.32-28.2,107.46,107.46,0,0,0-26.74-25c-.63-.42-1.15.64-.52,1.06Z" fill="#fff"/><path d="M722.15,332.21a15.88,15.88,0,0,0,7.37-19.2.59.59,0,0,0-1.13.37,14.7,14.7,0,0,1-6.89,17.84C720.83,331.58,721.48,332.57,722.15,332.21Z" fill="#fff"/><path d="M725.64,364.53A30.58,30.58,0,0,1,707.88,351c-.4-.65-1.39,0-1,.65a31.83,31.83,0,0,0,18.52,14c.73.2,1-1,.24-1.16Z" fill="#fff"/><path d="M702.56,303.81a9,9,0,0,1-8.34,1.79c-.73-.21-1,.95-.24,1.16a10,10,0,0,0,9.23-2,.61.61,0,0,0,.17-.82.6.6,0,0,0-.82-.17Z" fill="#fff"/><path d="M621.05,353.85c.45.14.91.29,1.36.45a119,119,0,0,1,17.68,7.49c.44.23.89.46,1.32.7a124.53,124.53,0,0,1,35.78,28.81,121.69,121.69,0,0,1,10.86,14.87c4.46,7.22,8.74,15.39,15.14,20.56a20.4,20.4,0,0,0,2.08,1.51l42.32-11.34.25-.21,1.71-.38c-.14-.28-.3-.57-.45-.85l-.27-.48-.17-.32,0-.1c-.05-.1-.11-.19-.15-.28q-1.34-2.43-2.7-4.83l0,0a177.45,177.45,0,0,0-24.67-34.14c-.29-.31-.58-.62-.89-.92a114.18,114.18,0,0,0-14.11-12.53,101.29,101.29,0,0,0-8.59-5.76,84.87,84.87,0,0,0-24.67-9.88c-17.32-3.95-35.72-2.31-50.63,6.93Z" fill="#f2f2f2"/><path d="M621.29,354.36a105.87,105.87,0,0,1,63.13,15.91,45.27,45.27,0,0,1,10.93,9.19,26.24,26.24,0,0,1,5.56,12.59c.73,4.29,1,8.76,2.75,12.8a16,16,0,0,0,9.82,8.66c5.32,1.8,11,1.59,16.5,1.19,6.13-.44,12.5-1,18.34,1.34.71.28,1.11-.84.4-1.12-10.17-4.07-21.16.3-31.63-1.69-4.88-.93-9.51-3.33-11.88-7.89-2.07-4-2.34-8.59-3-12.94a27.83,27.83,0,0,0-5-12.51,42.12,42.12,0,0,0-10.53-9.57A102.5,102.5,0,0,0,657.45,357a107.93,107.93,0,0,0-36.38-3.84c-.76.05-.53,1.22.22,1.17Z" fill="#fff"/><path d="M678.58,366.11a15.89,15.89,0,0,0-5.67-19.76c-.64-.42-1.32.55-.68,1a14.69,14.69,0,0,1,5.23,18.39c-.31.7.8,1.09,1.12.4Z" fill="#fff"/><path d="M700.82,389.82a30.6,30.6,0,0,1-22.3-.07c-.71-.28-1.11.83-.4,1.11a31.84,31.84,0,0,0,23.21,0c.71-.27.2-1.34-.51-1.07Z" fill="#fff"/><path d="M645.84,355.24a9,9,0,0,1-5.58,6.45c-.72.27-.2,1.34.51,1.07a10.1,10.1,0,0,0,6.19-7.12.59.59,0,1,0-1.12-.4Z" fill="#fff"/><circle cx="211.22" cy="134.24" r="9.96" fill="#fd6584"/><circle cx="582.49" cy="240.83" r="9.96" transform="translate(251.47 777.22) rotate(-80.78)" fill="#e6e6e6"/><circle cx="210.82" cy="22.2" r="9.96" fill="#e6e6e6"/><path d="M507.89,139.36h-2.84V61.51A45.05,45.05,0,0,0,460,16.45H295.06A45.05,45.05,0,0,0,250,61.51h0V488.6a45.06,45.06,0,0,0,45.06,45.06H460a45.06,45.06,0,0,0,45.06-45.06V194.77h2.84Z" fill="#3f3d56"/><path d="M495.46,61.82V488.29a33.64,33.64,0,0,1-33.64,33.64H296.08a33.65,33.65,0,0,1-33.65-33.64V61.82a33.65,33.65,0,0,1,33.64-33.65h20.12a16,16,0,0,0,14.8,22h94.49a16,16,0,0,0,14.8-22h21.53a33.66,33.66,0,0,1,33.65,33.65Z" fill="#f2f2f2"/><rect x="274.99" y="68.88" width="51.41" height="2.3" fill="#fff"/><rect x="353.24" y="68.88" width="51.41" height="2.3" fill="#fff"/><path d="M459.55,344.44H292a4.3,4.3,0,1,1,0-8.6h167.6a4.3,4.3,0,1,1,0,8.6Z" fill="#ccc"/><path d="M459.55,374.36H292a4.3,4.3,0,0,1,0-8.6h167.6a4.3,4.3,0,0,1,0,8.6Z" fill="#ccc"/><path d="M459.55,404.28H292a4.3,4.3,0,0,1,0-8.6h167.6a4.3,4.3,0,0,1,0,8.6Z" fill="#ccc"/><rect x="431.48" y="68.88" width="51.41" height="2.3" fill="#fff"/><rect x="274.99" y="481.98" width="51.41" height="2.3" fill="#fff"/><rect x="353.24" y="481.98" width="51.41" height="2.3" fill="#fff"/><rect x="431.48" y="481.98" width="51.41" height="2.3" fill="#fff"/><circle cx="378.94" cy="207.6" r="77.93" fill="#d1d3d4"/><circle cx="378.94" cy="211.05" r="71.1" fill="#0049fa"/><path d="M372.74,238.92h-.47a9.47,9.47,0,0,1-7-3.65l-11.2-14.4a9.48,9.48,0,0,1,1.66-13.3l.4-.32a9.49,9.49,0,0,1,13.3,1.66,5.69,5.69,0,0,0,4.22,2.19,5.57,5.57,0,0,0,4.41-1.77l22.75-24a9.49,9.49,0,0,1,13.4-.37l.37.35a9.5,9.5,0,0,1,.36,13.4L379.61,236A9.44,9.44,0,0,1,372.74,238.92Z" fill="#fff"/><rect x="245.22" y="98.53" width="9.21" height="49.48" fill="#3f3d56"/><rect x="245.22" y="153.76" width="9.21" height="28.77" fill="#3f3d56"/><rect x="245.22" y="188.28" width="9.21" height="28.77" fill="#3f3d56"/><circle cx="333.82" cy="35.24" r="4.6" fill="#fff"/><path d="M378.94,272.3A71.07,71.07,0,0,1,308,206.21c-.12,1.65-.2,3.32-.2,5a71.1,71.1,0,0,0,142.2,0c0-1.68-.08-3.35-.19-5A71.08,71.08,0,0,1,378.94,272.3Z" fill="#231f20" opacity="0.16" style="isolation:isolate"/><polygon points="479.18 268.43 535.57 270.73 542.47 232.75 494.14 217.8 479.18 268.43" fill="#ffb8b8"/><path d="M500.49,186.18l.55-17.94-27.33-6.85L424.51,147A10.27,10.27,0,1,0,418,160a9.73,9.73,0,0,0,1.06-.42l47.83,19.66Z" fill="#ffb8b8"/><path d="M482.88,186.06l15.38-21.93.38.05c.24,0,24.35,3.26,40.15,8A12.65,12.65,0,0,1,547,179a13.24,13.24,0,0,1-1.84,14.41,14.18,14.18,0,0,1-14.57,4.84Z" fill="#6c63ff"/><polygon points="492.62 518.46 476.98 518.46 469.55 458.14 492.62 458.15 492.62 518.46" fill="#ffb8b8"/><polygon points="614.37 511.69 598.91 514.03 582.54 455.5 602.81 452.05 614.37 511.69" fill="#ffb8b8"/><path d="M537.87,259.22,483.78,250l-1.92,4a183.79,183.79,0,0,0-18,68.21c-1.3,20-2.07,41.12-2.1,63.26,0,34.3,1.72,66.12,4.48,95.09l29.69-.19a701.24,701.24,0,0,1,3.49-92.11c2.27-21.82,5.43-42.2,9.08-61a419.53,419.53,0,0,0,28.55,80.12c10.37,21.94,31.7,47.29,42.08,69.23L611,472.76c-8.37-22.15-23.32-54.5-31.69-76.65-12-31.67-17.39-53.15-29.37-84.82a96.78,96.78,0,0,0,.4-17.93c-.55-10-2.63-21.93-8.69-29.9Z" fill="#2f2e41"/><path d="M546.22,242.71c2.7,5-3.71,15.51-8.35,16.51l-53.49-17.29,26.93-78,13.55,2.46L546.53,170l7.69,7a13.51,13.51,0,0,1,3.72,14.26Z" fill="#6c63ff"/><path d="M509.4,212.55l-15.12-9.65-19.88,20-37.52,34.91A10.27,10.27,0,1,0,444.67,270a10.45,10.45,0,0,0,.18-1.12l41.38-31Z" fill="#ffb8b8"/><path d="M500.28,227.61l-11-24.43.24-.3c.15-.19,15.27-19.25,27.4-30.41a12.61,12.61,0,0,1,10-3.54,13.24,13.24,0,0,1,11.44,9,14.18,14.18,0,0,1-3.31,15Z" fill="#6c63ff"/><circle cx="534.37" cy="134.9" r="23.79" transform="translate(308.8 637.76) rotate(-80.01)" fill="#ffb8b8"/><path d="M553.58,169.37l-.09,0-34.57-8.64a7.9,7.9,0,0,1-5.74-9.58,8,8,0,0,1,.89-2.16l1.14-1.9a12.92,12.92,0,0,0,.53-12.37,13.62,13.62,0,0,0-7.84-6.7l-.12-.06-.72-.45a5.62,5.62,0,0,1-3-3.47,5.81,5.81,0,0,1,.57-4.71,28.65,28.65,0,0,1,13.06-11.52,29.53,29.53,0,0,1,21.68-.65,3.87,3.87,0,0,1,3.54-.9c17.9,4.34,19.37,16.35,15.84,35.64l4.18,16.88A8.45,8.45,0,0,1,556.76,169a8,8,0,0,1-1.37.22Zm-14.4-62.05h0Zm.43-.1Z" fill="#2f2e41"/><path d="M496.43,534.09h-8.92l-1.6-8.42-4.08,8.42H458.17a5.31,5.31,0,0,1-3-9.69L474,511.34v-8.52L493.92,504Z" fill="#2f2e41"/><path d="M616.86,534.09h-8.92l-1.59-8.42-4.08,8.42H578.6a5.32,5.32,0,0,1-3-9.69l18.9-13.06v-8.52L614.36,504Z" fill="#2f2e41"/></svg>